# xmcd
#
# Track frame offsets:
#	150
#	17399
#	33454
#	55290
#	69267
#	91653
#
# Disc length: 1401 seconds
#
# Revision: 1
# Processed by: cddbd v1.5.2PL0 Copyright (c) Steve Scherf et al.
# Submitted via: audiograbber 1.83.01
#
DISCID=3c057706
DTITLE=Jerzee - Face to Face
DYEAR=2009
DGENRE=
TTITLE0=Face To Face
TTITLE1=All The Time
TTITLE2=Far Away
TTITLE3=For a Little While
TTITLE4=Tell Me Why
TTITLE5=Bruce Blues
EXTD=
EXTT0=
EXTT1=
EXTT2=
EXTT3=
EXTT4=
EXTT5=
PLAYORDER=
